<!---<svg width="702" height="708" viewBox="0 0 702 708" fill="none" xmlns="http://www.w3.org/2000/svg">
<g filter="url(#filter0_d)">
<path d="M351.014 699.981C542.647 699.981 697.996 543.289 697.996 350C697.996 156.71 542.647 0.0180969 351.014 0.0180969C159.381 0.0180969 4.03223 156.71 4.03223 350C4.03223 543.289 159.381 699.981 351.014 699.981Z" fill="#AF469A"/>
<path d="M351.014 699.981C542.647 699.981 697.996 543.289 697.996 350C697.996 156.71 542.647 0.0180969 351.014 0.0180969C159.381 0.0180969 4.03223 156.71 4.03223 350C4.03223 543.289 159.381 699.981 351.014 699.981Z" fill="#00D075"/>
<path d="M351.017 632.243C505.559 632.243 630.841 505.879 630.841 350C630.841 194.121 505.559 67.7568 351.017 67.7568C196.474 67.7568 71.1929 194.121 71.1929 350C71.1929 505.879 196.474 632.243 351.017 632.243Z" fill="#279ED6"/>
<path d="M351.017 632.243C505.559 632.243 630.841 505.879 630.841 350C630.841 194.121 505.559 67.7568 351.017 67.7568C196.474 67.7568 71.1929 194.121 71.1929 350C71.1929 505.879 196.474 632.243 351.017 632.243Z" fill="#04AE64"/>
<path d="M351.017 564.505C468.469 564.505 563.683 468.468 563.683 350C563.683 231.532 468.469 135.495 351.017 135.495C233.565 135.495 138.351 231.532 138.351 350C138.351 468.468 233.565 564.505 351.017 564.505Z" fill="#048C51"/>
<path d="M351.017 496.766C431.379 496.766 496.525 431.057 496.525 350C496.525 268.943 431.379 203.234 351.017 203.234C270.655 203.234 205.508 268.943 205.508 350C205.508 431.057 270.655 496.766 351.017 496.766Z" fill="#017140"/>
<path d="M419.238 195.556C419.238 231.046 407.747 253.174 397.789 275.982C380.935 314.587 321.119 314.634 304.244 275.982C297.303 260.082 279.576 225.133 283.103 189.545C286.365 158.286 315.002 132.997 351.017 132.997C388.058 132.997 419.238 160.41 419.238 195.556Z" fill="#F9CFAC"/>
<path d="M418.93 189.545C417.054 219.344 407.88 237.344 397.789 260.458C380.936 299.064 321.119 299.11 304.244 260.458C293.965 236.915 285.019 219.352 283.104 189.545C288.51 137.722 358.088 113.555 399.258 151.315C410.144 161.306 417.377 174.656 418.93 189.545Z" fill="#FFE4CC"/>
<path d="M419.238 195.556C419.238 205.268 418.299 214.643 416.594 223.428C408.616 197.819 382.749 178.156 351.017 178.156C319.372 178.156 293.352 197.737 285.303 223.428C283.509 214.091 282.368 204.748 282.643 195.63C283.742 159.309 312.972 132.997 351.015 132.997C388.438 132.997 419.238 160.75 419.238 195.556Z" fill="#605E5D"/>
<path d="M419.239 195.556C419.239 212.977 421.097 194.169 401.47 176.138C373.622 150.609 328.429 150.594 300.565 176.138C281.031 194.051 282.796 212.961 282.796 195.556C282.796 161.323 312.877 132.496 350.921 132.496C388.342 132.496 419.239 160.75 419.239 195.556Z" fill="#605E5D"/>
<path d="M453.642 313.929C448.241 308.468 441.274 305.518 434.18 305.081C432.892 304.993 443.771 305.025 269.714 305.025C261.865 305.025 254.182 308.073 248.391 313.929C235.17 330.603 236.398 329.046 235.701 329.947C253.73 427.308 265.737 393.447 265.737 545.846H436.296C436.296 451.557 439.813 434.598 448.857 401.001C465.325 341.904 460.208 355.477 461.365 353.711C463.807 343.281 466.332 330.295 466.332 329.918C465.637 329.063 467.218 331.05 453.642 313.929Z" fill="#60519D"/>
<path d="M436.935 312.48C432.016 307.504 425.547 305.023 419.09 305.023C404.738 305.023 299.892 305.023 285.391 305.023C268.168 305.023 265.157 312.319 254.479 325.885C266.745 391.899 278.265 389.874 279.291 469.533C279.802 509.139 311.749 540.988 351.018 540.988C390.178 540.988 422.234 509.247 422.746 469.533C423.354 422.284 427.395 405.32 433.01 385.089C444.64 343.242 442.616 348.129 443.394 345.775C445.09 338.607 447.559 326.341 447.559 325.871C446.969 325.148 448.397 326.944 436.935 312.48Z" fill="#7861D5"/>
<path d="M289.469 364.394C249.415 404.796 262.101 391.998 214.575 439.937C201.927 452.694 184.815 459.92 166.949 460.089C144.94 460.089 140.263 460.625 38.957 460.625C15.996 460.625 -1.29429 438.726 5.49004 416.271C9.80633 401.759 23.0616 391.828 38.1455 391.828C46.0505 375.882 66.1279 370.406 80.7207 380.468C101.205 394.61 116.509 391.861 166.165 391.462L241.843 315.115C255.258 301.612 276.924 301.657 290.281 315.312C303.535 328.916 302.797 350.951 289.469 364.394Z" fill="#F9CFAC"/>
<path d="M589.781 637.424C589.781 671.961 562.035 699.982 527.759 699.982H174.274C124.804 699.982 95.7053 644.532 122.268 603.339C128.673 593.387 137.872 585.267 149.075 580.253L265.738 545.844H436.296L552.959 580.253C575.38 590.302 589.781 612.747 589.781 637.424Z" fill="#8664BD"/>
<path d="M589.336 629.978C585.677 660.796 559.683 685.016 527.759 685.016C512.139 685.016 499.395 672.251 499.395 656.406V630.341L519.178 620.364L396.772 638.001C386.302 639.51 375.624 637.762 366.165 632.991C349.034 624.352 332.399 624.764 317.871 632.091C307.316 637.414 295.273 638.961 283.723 636.464L163.071 610.386L202.639 630.341V656.406C202.639 672.207 189.939 685.016 174.274 685.016C142.418 685.016 116.367 660.865 112.698 629.978C115.268 608.219 129.039 589.221 149.075 580.253L265.737 545.844H436.296L552.959 580.253C573.077 589.27 586.764 608.277 589.336 629.978Z" fill="#9F7ADB"/>
<path d="M299.851 656.979C262.132 676.001 258.457 676.426 253.025 685.016C250.244 689.406 248.685 694.57 248.685 699.982H214.57V635.478C291.248 654.809 274.447 650.573 299.851 656.979Z" fill="#F9CFAC"/>
<path d="M487.462 635.478V699.982H248.685C248.685 689.328 254.721 679.739 263.944 675.088C307.077 653.334 295.349 660.003 317.038 645.417C334.693 633.558 359.943 640.912 367.005 662.316L368.068 665.571L487.462 635.478Z" fill="#F9CFAC"/>
<path d="M280.067 651.99C262.956 660.62 260.007 661.502 255.497 666.709C244.858 679 231.472 685.016 214.57 685.016V635.478L280.067 651.99Z" fill="#FFE4CC"/>
<path d="M487.462 635.478V685.016H266.258C260.908 685.016 258.879 677.642 263.942 675.088C307.076 653.334 295.347 660.003 317.036 645.417C334.692 633.558 359.942 640.912 367.003 662.316L368.066 665.57L487.462 635.478Z" fill="#FFE4CC"/>
<path d="M697.999 426.516C697.845 445.539 681.895 460.625 663.021 460.625C599.47 460.625 627.805 460.735 535.043 460.075C535.313 460.342 508.172 460.829 487.459 439.937C448.601 400.743 443.928 396.031 412.564 364.394C391.512 343.158 404.26 306.786 434.18 305.081C443.244 304.476 453.013 307.889 460.19 315.115L535.869 391.462C584.608 391.854 600.729 394.679 621.313 380.468C635.906 370.406 655.983 375.882 663.888 391.828C682.803 391.828 698.15 407.307 697.999 426.516Z" fill="#F9CFAC"/>
<path d="M298.452 329.312C295.052 341.109 297.155 336.886 214.574 420.18C201.42 433.448 183.697 440.288 166.795 440.346C72.631 440.665 100.559 440.868 38.9569 440.868C23.3847 440.868 9.79928 430.58 5.48999 416.271C9.80628 401.759 23.0615 391.828 38.1455 391.828C46.0505 375.882 66.1279 370.406 80.7207 380.468C101.205 394.61 116.509 391.861 166.165 391.462L241.843 315.115C260.361 296.477 291.372 305.087 298.452 329.312Z" fill="#FFE4CC"/>
<path d="M696.544 416.257C692.22 430.566 678.621 440.868 663.021 440.868C599.47 440.868 627.805 440.978 535.043 440.318C535.313 440.585 508.172 441.071 487.459 420.18C408.002 340.035 407.084 341.461 403.582 329.312C410.713 304.907 441.751 296.556 460.19 315.115L535.869 391.462C584.608 391.854 600.729 394.679 621.313 380.468C635.906 370.406 655.983 375.882 663.888 391.828C678.946 391.828 692.218 401.747 696.544 416.257Z" fill="#FFE4CC"/>
</g>
<defs>
<filter id="filter0_d" x="0" y="0" width="702" height="708" filterUnits="userSpaceOnUse" color-interpolation-filters="sRGB">
<feFlood flood-opacity="0" result="BackgroundImageFix"/>
<feColorMatrix in="SourceAlpha" type="matrix" values="0 0 0 0 0 0 0 0 0 0 0 0 0 0 0 0 0 0 127 0"/>
<feOffset dy="4"/>
<feGaussianBlur stdDeviation="2"/>
<feColorMatrix type="matrix" values="0 0 0 0 0 0 0 0 0 0 0 0 0 0 0 0 0 0 0.25 0"/>
<feBlend mode="normal" in2="BackgroundImageFix" result="effect1_dropShadow"/>
<feBlend mode="normal" in="SourceGraphic" in2="effect1_dropShadow" result="shape"/>
</filter>
</defs>
</svg> -->



<!--<svg xmlns="http://www.w3.org/2000/svg" version="1.1" xmlns:xlink="http://www.w3.org/1999/xlink" xmlns:svgjs="http://svgjs.com/svgjs" width="512" height="512" x="0" y="0" viewBox="0 0 512 512" style="enable-background:new 0 0 512 512" xml:space="preserve" class=""><g><g xmlns="http://www.w3.org/2000/svg"><path d="m512 256.324c0 90.8-47.28 170.57-118.57 216.01-14.75 9.41-30.53 4.317-47.14 10.577-15.08 5.69-30.86 10-47.16 12.76-1.5.25-3 .5-4.51.72-12.59 1.92-25.49 2.91-38.62 2.91-6.15 0-12.24-.22-18.28-.65-25.18-1.77-49.36-7.19-72-15.74-19-7.15-36.91-3.477-53.45-14.717-67.76-46.06-112.27-123.77-112.27-211.87 0-141.38 114.62-256 256-256s256 114.62 256 256z" fill="#95d6a4" data-original="#95d6a4" class=""></path><g><g><g><ellipse cx="45.642" cy="268.198" fill="#b3e59f" rx="24.965" ry="43.382" transform="matrix(.707 -.707 .707 .707 -176.276 110.828)" data-original="#b3e59f"></ellipse><ellipse cx="106.994" cy="268.198" fill="#b3e59f" rx="43.382" ry="24.965" transform="matrix(.707 -.707 .707 .707 -158.307 154.21)" data-original="#b3e59f"></ellipse><ellipse cx="76.318" cy="255.492" fill="#ccf49f" rx="24.965" ry="43.382" data-original="#ccf49f"></ellipse></g></g><g><g><ellipse cx="405.006" cy="268.198" fill="#b3e59f" rx="24.965" ry="43.382" transform="matrix(.707 -.707 .707 .707 -71.021 364.936)" data-original="#b3e59f"></ellipse><ellipse cx="466.358" cy="268.198" fill="#b3e59f" rx="43.382" ry="24.965" transform="matrix(.707 -.707 .707 .707 -53.052 408.318)" data-original="#b3e59f"></ellipse><ellipse cx="435.682" cy="255.492" fill="#ccf49f" rx="24.965" ry="43.382" data-original="#ccf49f"></ellipse></g></g></g><g><g><path d="m91.906 334.651-11.246-3.569c-3.85-1.222-7.648 2.016-7.051 6.011l1.865 12.48z" fill="#ffcbbe" data-original="#ffcbbe"></path><path d="m155.604 423.425c-4.253 0-8.506-1.565-11.829-4.7l-51.016-48.138c-14.385 4.624-29.795-3.289-34.419-17.674l-2.177-6.774 35.743-11.489c5.981-1.923 12.534-.439 17.104 3.873l46.463 43.841 57.178-55.164 23.935 24.81-69.014 66.582c-3.336 3.221-7.651 4.833-11.968 4.833z" fill="#ffddce" data-original="#ffddce" class=""></path><path d="m236.583 352.007-69.016 66.58c-3.332 3.218-7.653 4.838-11.962 4.838-4.263 0-8.515-1.574-11.836-4.711l-51.01-48.137c-2.781.896-5.608 1.322-8.389 1.322-11.56 0-22.304-7.389-26.039-18.995l-2.172-6.768 6.435-2.068c5.137 6.791 13.238 10.825 21.776 10.825 2.781 0 5.608-.425 8.389-1.322l51.01 48.137c3.321 3.137 7.573 4.7 11.836 4.7 4.309 0 8.63-1.609 11.962-4.826l60.513-58.387z" fill="#ffcbbe" data-original="#ffcbbe"></path><path d="m419.142 334.651 11.246-3.569c3.85-1.222 7.648 2.016 7.051 6.011l-1.865 12.48z" fill="#ffcbbe" data-original="#ffcbbe"></path><path d="m355.443 423.425c4.253 0 8.506-1.565 11.829-4.7l51.016-48.138c14.385 4.624 29.795-3.289 34.419-17.674l2.177-6.774-35.743-11.489c-5.981-1.923-12.534-.439-17.104 3.873l-46.463 43.841-57.178-55.164-23.935 24.81 69.014 66.582c3.336 3.221 7.651 4.833 11.968 4.833z" fill="#ffddce" data-original="#ffddce" class=""></path><path d="m274.464 352.007 69.016 66.58c3.332 3.218 7.653 4.838 11.962 4.838 4.263 0 8.515-1.574 11.836-4.711l51.01-48.137c2.781.896 5.608 1.322 8.389 1.322 11.56 0 22.305-7.389 26.039-18.995l2.172-6.768-6.435-2.068c-5.137 6.791-13.238 10.825-21.776 10.825-2.781 0-5.608-.425-8.389-1.322l-51.01 48.137c-3.321 3.137-7.573 4.7-11.836 4.7-4.309 0-8.63-1.609-11.962-4.826l-60.513-58.387z" fill="#ffcbbe" data-original="#ffcbbe"></path></g><path d="m305.196 482.773h-99.345v-31.363l52.932-7.177 46.413 7.177z" fill="#ffddce" data-original="#ffddce" class=""></path><path d="m228.175 444.233v42.14c-7.553-.857-15-2.067-22.324-3.6v-31.363z" fill="#ffcbbe" data-original="#ffcbbe"></path><path d="m217.908 322.027h75.231v70.248h-75.231z" fill="#ffddce" data-original="#ffddce" class=""></path><circle cx="343.456" cy="41.884" fill="#3342aa" r="41.56" data-original="#3342aa"></circle><path d="m357.593 80.977c-4.414 1.595-9.181 2.467-14.142 2.467-22.952 0-41.555-18.612-41.555-41.564s18.603-41.555 41.555-41.555c4.961 0 9.728.872 14.142 2.467-15.988 5.787-27.422 21.097-27.422 39.088 0 17.99 11.434 33.31 27.422 39.097z" fill="#242e7a" data-original="#242e7a"></path><path d="m355.02 84.882c-2.17 0-4.348-.757-6.108-2.3l-47.635-41.748c-3.852-3.376-4.238-9.235-.862-13.086 3.376-3.852 9.235-4.238 13.086-.862l47.635 41.748c3.852 3.376 4.238 9.235.862 13.086-1.834 2.092-4.4 3.162-6.978 3.162z" fill="#dd636e" data-original="#dd636e"></path><circle cx="168.686" cy="41.884" fill="#3342aa" r="41.56" data-original="#3342aa"></circle><path d="m182.824 80.982c-4.414 1.595-9.181 2.467-14.142 2.467-22.952 0-41.555-18.612-41.555-41.564s18.603-41.555 41.555-41.555c4.961 0 9.728.872 14.142 2.467-15.988 5.787-27.422 21.097-27.422 39.088-.001 17.99 11.434 33.31 27.422 39.097z" fill="#242e7a" data-original="#242e7a"></path><path d="m157.123 84.882c2.17 0 4.348-.757 6.108-2.3l47.635-41.748c3.852-3.376 4.238-9.235.862-13.086-3.376-3.852-9.235-4.238-13.086-.862l-47.635 41.748c-3.852 3.376-4.238 9.235-.862 13.086 1.833 2.092 4.399 3.162 6.978 3.162z" fill="#dd636e" data-original="#dd636e"></path><path d="m256.071 22.14c-63.467 0-114.917 51.45-114.917 114.916v55.511c0 63.467 51.45 114.916 114.916 114.916 63.467 0 114.916-51.45 114.916-114.916v-55.511c.002-63.466-51.448-114.916-114.915-114.916z" fill="#3342aa" data-original="#3342aa"></path><path d="m282.549 304.426c-8.504 2.003-17.36 3.06-26.476 3.06-63.468 0-114.918-51.45-114.918-114.918v-55.512c0-63.468 51.45-114.918 114.918-114.918 9.116 0 17.972 1.057 26.476 3.06-50.708 11.954-88.452 57.496-88.452 111.858v55.512c0 54.362 37.744 99.905 88.452 111.858z" fill="#242e7a" data-original="#242e7a"></path><g><circle cx="167.614" cy="202.321" fill="#ffcbbe" r="30.549" data-original="#ffcbbe"></circle><circle cx="167.614" cy="202.321" fill="#eaac9d" r="16.391" data-original="#eaac9d"></circle><circle cx="344.521" cy="202.321" fill="#ffcbbe" r="30.549" data-original="#ffcbbe"></circle><circle cx="344.521" cy="202.321" fill="#eaac9d" r="16.391" data-original="#eaac9d"></circle></g><path d="m229.661 276.024h52.813v68.631h-52.813z" fill="#ffddce" data-original="#ffddce" class=""></path><path d="m234.072 320.998h-4.411v-44.976h19.988v29.399c.001 8.603-6.973 15.577-15.577 15.577z" fill="#ffcbbe" data-original="#ffcbbe"></path><path d="m282.474 276.024v28.433c-7.255 1.974-14.888 3.027-22.766 3.027h-7.282c-7.878 0-15.511-1.053-22.766-3.027v-28.433z" fill="#ffcbbe" data-original="#ffcbbe"></path><path d="m346.359 142.565v69.354c0 42.687-30.858 78.164-71.497 85.335-4.914.867-9.981 1.324-15.153 1.324h-7.267c-47.858 0-86.659-38.801-86.659-86.659v-69.354c16.934 0 29.458-10 37.648-19.734 7.762-9.229 11.619-18.21 11.619-18.21 29.64 29.649 89.832 37.944 131.309 37.944z" fill="#ffddce" data-original="#ffddce" class=""></path><path d="m274.891 297.245c-.01 0-.019 0-.029.009-4.914.867-9.981 1.324-15.153 1.324h-7.267c-47.858 0-86.659-38.801-86.659-86.659v-69.354c16.934 0 29.458-10 37.648-19.734v89.088c.001 42.668 30.84 78.145 71.46 85.326z" fill="#ffcbbe" data-original="#ffcbbe"></path><path d="m275.991 218.537c0-6.395-9.164-11.579-20.469-11.579s-20.469 5.184-20.469 11.579" fill="#ffcbbe" data-original="#ffcbbe"></path><path d="m256.068 255.68c-8.467 0-16.933-3.249-24.32-9.747-2.547-2.24-2.796-6.12-.555-8.667 2.24-2.547 6.12-2.795 8.667-.555 9.999 8.795 22.419 8.795 32.417 0 2.545-2.24 6.427-1.991 8.667.555 2.24 2.547 1.992 6.427-.555 8.667-7.388 6.498-15.854 9.747-24.321 9.747z" fill="#eaafa5" data-original="#eaafa5"></path><path d="m318.396 393.586-13.2-39.988v-31.58c0-3.356-2.721-6.077-6.077-6.077h-5.979c-3.356 0-6.077 2.721-6.077 6.077v17.592c0 15.495-12.561 28.056-28.056 28.056h-6.966c-15.495 0-28.056-12.561-28.056-28.056v-17.592c0-3.356-2.721-6.077-6.077-6.077h-5.979c-3.356 0-6.077 2.721-6.077 6.077v31.58l-13.2 39.988c-2.919 8.843.453 18.546 8.228 23.672l4.973 3.279v30.876h99.345v-30.876l4.973-3.279c7.772-5.126 11.144-14.829 8.225-23.672z" fill="#dd636e" data-original="#dd636e"></path><path d="m228.173 420.537v30.877h-22.318v-30.877l-4.974-3.281c-7.773-5.132-11.142-14.826-8.229-23.669l13.203-39.996v-31.574c0-3.36 2.72-6.08 6.08-6.08h5.974c3.36 0 6.08 2.72 6.08 6.08v17.59c0 5.334 1.491 10.326 4.079 14.572l-7.167 39.408c-1.606 8.843.254 18.537 4.536 23.669z" fill="#c63d4f" data-original="#c63d4f"></path><path d="m219.483 420.537h85.713v13.25h-85.713z" fill="#c63d4f" data-original="#c63d4f"></path><g><circle cx="195.089" cy="230.638" fill="#eaac9d" r="5.384" data-original="#eaac9d"></circle><circle cx="211.448" cy="230.638" fill="#ffcbbe" r="5.384" data-original="#ffcbbe"></circle><circle cx="203.643" cy="244.178" fill="#eaac9d" r="5.384" data-original="#eaac9d"></circle></g><g fill="#ffcbbe"><circle cx="317.053" cy="230.638" r="5.384" fill="#ffcbbe" data-original="#ffcbbe"></circle><circle cx="300.694" cy="230.638" r="5.384" fill="#ffcbbe" data-original="#ffcbbe"></circle><circle cx="308.499" cy="244.178" r="5.384" fill="#ffcbbe" data-original="#ffcbbe"></circle></g><g><path d="m393.43 472.334c-28.16 17.96-60.08 30.56-94.3 36.36l-58.71-38.2 118.17-20.08c15.92-2.71 30.66 7.24 34.84 21.92z" fill="#dd636e" data-original="#dd636e"></path><path d="m346.29 495.934c-15.08 5.69-30.86 10-47.16 12.76-1.5.25-3 .5-4.51.72l-54.2-13.48z" fill="#c63d4f" data-original="#c63d4f"></path></g><g><path d="m263.78 470.494v41.18h-26.06c-46.3-3.26-89.2-18.84-125.45-43.48 5.55-12.35 18.96-20.23 33.34-17.78z" fill="#dd636e" data-original="#dd636e"></path><path d="m263.78 495.934v15.74h-26.06c-25.18-1.77-49.36-7.19-72-15.74z" fill="#c63d4f" data-original="#c63d4f"></path><path d="m303.711 511.676h-39.933v-41.18l7.286-2.284c5.213-1.635 10.702 1.57 11.842 6.913l.582 2.731 24.668 9.212c4.968 1.855 8.261 6.6 8.261 11.903-.001 7.016-5.689 12.705-12.706 12.705z" fill="#ffddce" data-original="#ffddce" class=""></path><path d="m316.42 498.978c0 3.505-1.425 6.676-3.723 8.975-2.298 2.298-5.47 3.723-8.986 3.723h-39.932v-15.732h39.932c3.516 0 6.688-1.425 8.986-3.723.356-.356.689-.724.988-1.115 1.735 2.195 2.735 4.942 2.735 7.872z" fill="#ffcbbe" data-original="#ffcbbe"></path></g><g fill="#eaac9d"><path d="m214.745 204.002c-8.467 0-16.933-3.249-24.32-9.747-2.547-2.24-2.796-6.12-.555-8.667 2.24-2.547 6.12-2.795 8.667-.555 9.999 8.795 22.419 8.795 32.417 0 2.545-2.24 6.427-1.991 8.667.555 2.24 2.547 1.992 6.427-.555 8.667-7.388 6.498-15.854 9.747-24.321 9.747z" fill="#eaac9d" data-original="#eaac9d"></path><path d="m297.397 204.002c-8.467 0-16.933-3.249-24.32-9.747-2.547-2.24-2.796-6.12-.555-8.667 2.24-2.547 6.12-2.795 8.667-.555 9.999 8.795 22.419 8.795 32.417 0 2.545-2.24 6.427-1.991 8.667.555 2.24 2.547 1.992 6.427-.555 8.667-7.387 6.498-15.854 9.747-24.321 9.747z" fill="#eaac9d" data-original="#eaac9d"></path></g></g></g></g></svg>-->






<svg xmlns="http://www.w3.org/2000/svg" version="1.1" xmlns:xlink="http://www.w3.org/1999/xlink" xmlns:svgjs="http://svgjs.com/svgjs" width="512" height="512" x="0" y="0" viewBox="0 0 468 468" style="enable-background:new 0 0 512 512" xml:space="preserve" class=""><g><g xmlns="http://www.w3.org/2000/svg"><g><path d="m380.622 137.307c-12.141 2.366-19.899 10.432-24.828 18.994 1.541-7.352 2.479-12.401 2.83-14.345 3.182-9.197 9.986-35.221-8.081-50.941-16.512-14.367-31.362 19.366 2.11 50.232-.861 4.708-4.301 22.783-10.51 47.006-.812-8.465-3.959-17.198-11.779-24.002-16.823-14.638-31.92 20.655 4.057 51.975-4.722 15.923-10.383 33.023-17.019 49.929 1.457-11.482.241-26.073-11.519-36.305-16.935-14.735-32.127 21.126 4.774 52.598-8.58 19.632-18.533 38.375-29.921 53.968 3.189-11.351 6.437-33.005-9.382-46.769-16.949-14.748-32.154 21.189 4.869 52.68-5.793 7.258-11.934 13.685-18.433 19.004-1.282 1.049-1.471 2.939-.422 4.222.593.725 1.455 1.1 2.324 1.1.668 0 1.34-.222 1.898-.678 11.455-9.375 22.362-22.316 32.676-38.735 47.554 7.802 65.117-26.717 43-30.209-13.625-2.151-24.565 4.216-32.349 11.597 8.984-17.125 17.466-37.094 25.41-59.852 48.658-.293 60.13-37.629 37.656-37.226-15.39.276-25.638 10.417-31.924 20.042 5.946-18.676 10.685-36.408 14.263-51.147 47.567-8.855 52.312-47.427 30.3-43.138z" fill="#b2b2b2" data-original="#b2b2b2"></path><g><g><path d="m435.745 342.329c-1.39-2.407-3.386-4.375-5.868-5.944 28.656-21.415 44.233-46.661 35.87-61.146-4.477-7.754-15.063-11.1-28.968-10.382 16.246-34.849 17.97-67.154 2.746-75.943s-42.339 8.856-64.396 40.35c-6.331-12.401-14.522-19.896-23.475-19.896-16.725 0-30.801 26.113-35.019 61.637-2.6-1.365-5.303-2.11-8.082-2.11-20.057 0-36.316 37.54-36.316 83.848 0 30.25 6.94 56.751 17.343 71.498 3.035 7.385 13.24 13.251 21.117 12.192 17.972 1.635 44.394-5.605 70.591-20.73 40.105-23.153 64.486-56.004 54.457-73.374z" fill="#eaeaea" data-original="#eaeaea"></path></g><path d="m451.505 289.367c-.776-1.827-2.887-2.679-4.714-1.902l-78.49 33.359 56.067-98.186c1.023-1.791.4-4.072-1.391-5.095-1.78-1.017-4.046-.406-5.077 1.36l-56.784 97.281-8.62-82.924c-.188-1.783-1.757-3.116-3.559-2.991-1.843.129-3.232 1.727-3.104 3.569l6.763 96.942-29.558 50.638-8.651-82.331c-.183-1.721-1.698-3.01-3.44-2.89-1.783.122-3.129 1.667-3.007 3.45l6.611 96.309-20.235 34.666c2.427 2.156 5.411 3.876 8.489 4.899l19.883-34.82 88.869-41.156c1.58-.734 2.312-2.595 1.631-4.214-.697-1.656-2.604-2.433-4.26-1.736l-78.119 32.884 29.311-51.331 89.575-41.108c1.76-.81 2.572-2.88 1.81-4.673z" fill="#ffffff" data-original="#ffffff"></path></g></g><g><path d="m191.775 342.325c37.022-31.491 21.818-67.427 4.868-52.679-15.816 13.762-12.571 35.413-9.383 46.765-11.385-15.593-21.337-34.335-29.916-53.967 36.897-31.471 21.705-67.33 4.771-52.595-11.753 10.227-12.975 24.808-11.521 36.287-6.633-16.901-12.292-33.996-17.013-49.914 35.973-31.319 20.877-66.609 4.054-51.972-7.817 6.802-10.965 15.531-11.778 23.994-6.209-24.219-9.65-42.291-10.511-46.998 33.472-30.866 18.622-64.599 2.11-50.232-18.066 15.72-11.263 41.745-8.081 50.941.351 1.944 1.289 6.993 2.83 14.345-4.929-8.562-12.687-16.628-24.828-18.994-22.012-4.29-17.266 34.282 30.296 43.137 3.578 14.739 8.317 32.471 14.263 51.147-6.286-9.625-16.533-19.766-31.924-20.042-22.474-.403-11.002 36.934 37.656 37.226 7.944 22.758 16.426 42.726 25.41 59.852-7.784-7.382-18.724-13.749-32.349-11.597-22.117 3.492-4.554 38.011 43 30.209 10.314 16.419 21.221 29.36 32.676 38.735.558.456 1.23.678 1.898.678.869 0 1.73-.375 2.324-1.1 1.049-1.282.86-3.172-.422-4.222-6.497-5.318-12.638-11.745-18.43-19.004z" fill="#b2b2b2" data-original="#b2b2b2"></path><g><g><path d="m32.255 342.329c1.39-2.407 3.386-4.375 5.868-5.944-28.657-21.415-44.233-46.661-35.87-61.146 4.477-7.754 15.063-11.1 28.968-10.382-16.246-34.849-17.97-67.154-2.746-75.943s42.339 8.856 64.396 40.35c6.331-12.401 14.522-19.896 23.475-19.896 16.725 0 30.801 26.113 35.019 61.637 2.6-1.365 5.303-2.11 8.082-2.11 20.057 0 36.316 37.54 36.316 83.848 0 30.25-6.94 56.751-17.343 71.498-3.035 7.385-13.24 13.251-21.117 12.192-17.972 1.635-44.394-5.605-70.591-20.73-40.105-23.153-64.486-56.004-54.457-73.374z" fill="#eaeaea" data-original="#eaeaea"></path></g><path d="m173.683 430.622-20.235-34.666 6.611-96.309c.116-1.727-1.154-3.257-2.89-3.44-1.777-.187-3.369 1.103-3.556 2.88l-8.651 82.331-29.558-50.638 6.763-96.942c.123-1.789-1.193-3.373-2.991-3.559-1.837-.191-3.481 1.144-3.672 2.981l-8.62 82.924-56.784-97.281c-1.032-1.766-3.297-2.377-5.077-1.36-1.791 1.023-2.414 3.304-1.391 5.095l56.067 98.186-78.49-33.359c-1.783-.755-3.86.037-4.673 1.809-.828 1.804-.037 3.938 1.768 4.766l89.575 41.108 29.311 51.331-78.119-32.884c-1.606-.674-3.476.038-4.214 1.631-.755 1.63-.045 3.564 1.585 4.319l88.869 41.156 19.883 34.82c3.078-1.023 6.062-2.743 8.489-4.899z" fill="#ffffff" data-original="#ffffff"></path></g></g><g><g><g><path d="m0 387.773h468v80.226h-468z" fill="#fff5e1" data-original="#fff5e1"></path></g><g><path d="m0 458h468v10h-468z" fill="#f7e5c4" data-original="#f7e5c4"></path></g></g><g><g><path d="m139.991 154.453s-55.381 5.235-44.841 79.648c9.491 67.002 15.422 101.893 33.356 104.592 17.935 2.699 12.536-48.678 12.536-48.678s.667-35.134.138-48.492c-.677-17.095-3.324-54.658 15.066-66.804z" fill="#fcd2c5" data-original="#fcd2c5" class=""></path></g><g><path d="m305.358 364.241-8.015-43.651v-166.137h-157.352v161.443l-8.418 48.345z" fill="#fcd2c5" data-original="#fcd2c5" class=""></path></g><g><path d="m259.176 33.393-2.259 28.556c-1.312 16.581-1.072 33.247.716 49.783l1.544 14.276-9.403 85.489 47.571-12.767c1.801-17.162 4.714-94.468 5.56-111.856 2.351-48.31-17.397-85.92-31.503-86.86s-49.71 44.793-49.71 44.793l13.035 13.033z" fill="#fcd2c5" data-original="#fcd2c5" class=""></path></g><g><g><path d="m297.607 320.59v-83.625c-25.147-12.069-41.144-37.488-41.144-65.379v-17.133h-75.065v17.133c0 27.89-15.997 53.309-41.144 65.379v78.931l-2.489 13.863h161.47z" fill="#ed18c0" data-original="#ed18c0"></path></g><g><path d="m137.765 329.759-6.192 34.482h173.785l-6.123-34.482z" fill="#e019b6" data-original="#e019b6"></path></g></g><g><g><path d="m215.466 117.634h-26.93s-51.479 6.179-53.987 58.84-37.41 3.294-45.071 46.702c-2.554 14.47 3.44 26.781 13.386 35.222 25.826 21.919 65.839 8.396 74.134-24.444l11.538-45.675c10.756-46.813 30.335-55.325 30.335-55.325z" fill="#5a2c42" data-original="#5a2c42"></path></g><g><path d="m215.466 117.634h-7.68l1.211 5.447s-19.579 8.511-30.335 55.325l-11.538 45.675c-8.008 31.704-45.573 45.394-71.401 26.583 2.03 2.839 4.432 5.435 7.141 7.734 25.826 21.919 65.839 8.396 74.134-24.444l11.537-45.675c10.756-46.813 30.335-55.325 30.335-55.325z" fill="#6a3b52" data-original="#6a3b52"></path></g></g><g><g><g><path d="m25.768 428.935c-2.951-1.405-5.118-4.223-5.328-7.485-.74-11.456 20.646-19.546 38.883-13.685 18.897 6.073 32.619-4.499 32.619-4.499l8.59-4.703c5.908-3.235 13.298-1.619 17.316 3.787l5.363 7.215 15.297.45 69.738-36.438 53.32-10.787c25.309-5.12 48.964 14.224 48.964 40.043 0 20.947-15.845 38.501-36.686 40.641l-31.71 3.256c-10.57 1.313-21.241 1.61-31.867.887l-116.301-7.91-51.966-6.298c-5.747-.193-11.219-1.693-16.232-4.474z" fill="#fcd2c5" data-original="#fcd2c5" class=""></path></g><g><path d="m261.566 362.789-53.32 10.787-47.865 25.01 16.205 46.739 33.68 2.291c10.626.723 21.297.426 31.867-.887l31.71-3.256c20.841-2.14 36.686-19.693 36.686-40.641.001-25.819-23.653-45.164-48.963-40.043z" fill="#565656" data-original="#565656"></path></g><g><path d="m160.382 398.586 16.205 46.739 23.062 1.568-20.774-57.97z" fill="#4c4c4c" data-original="#4c4c4c"></path></g></g><g><g><path d="m442.559 425.731c-6.919-6.499-15.851-10.532-25.326-11.123-10.028-.625-21.813.507-32.902 3.279-10.581 2.645-19.681-2.75-25.641-8.01-4.303-3.798-10.993-2.838-14.177 1.937l-85.71-108.191c-44.992-45.885-80.761 1.35-80.761 1.35l-42.061 43.409c-.007.002-.011.009-.017.013-20.579 13.49-21.082 34.294-14.321 46.337 8.801 15.677 28.89 20.971 44.747 12.495l72.842-38.937 94.544 74.292c4.366 2.821 9.453 4.321 14.651 4.321h85.745c6.764 0 12.248-5.483 12.248-12.246.001-3.381-1.397-6.611-3.861-8.926z" fill="#fcd2c5" data-original="#fcd2c5" class=""></path></g><g><path d="m258.804 303.623c-44.992-45.885-80.761 1.35-80.761 1.35l-42.061 43.409c-.007.003-.011.009-.017.013-20.579 13.49-21.082 34.294-14.321 46.337 8.801 15.677 28.89 21.971 44.747 13.495l72.842-38.937 42.163 33.131 30.625-31.625z" fill="#616161" data-original="#616161"></path></g><g><path d="m312.019 370.797-12.945-16.341-33.348 34.653 15.669 12.312z" fill="#4c4c4c" data-original="#4c4c4c"></path></g></g></g><g><g><path d="m218.67 202.387h-.006c-12.542 0-22.709-10.167-22.709-22.709v-62.687h45.424v62.687c0 12.542-10.167 22.709-22.709 22.709z" fill="#ffc5b7" data-original="#ffc5b7"></path></g><g><path d="m230.67 194.386h-.006c-12.542 0-22.709-10.167-22.709-22.709v-54.687h-12v62.687c0 12.542 10.167 22.709 22.709 22.709h.006c7.295 0 13.781-3.443 17.936-8.789-1.893.512-3.881.789-5.936.789z" fill="#ffbbae" data-original="#ffbbae"></path></g><g><g><path d="m263.103 118.097v-48.653l-29.755-25.607h-28.565l-30.552 27.436s.4 8.779.003 46.823c-.149 14.266 5.561 24.212 12.755 31.071 15.4 14.681 39.315 16.259 56.743 4.053 9.424-6.6 17.894-17.419 19.371-35.123z" fill="#fcd2c5" data-original="#fcd2c5" class=""></path></g></g><g><g><path d="m255.787 24.654s-48.522-30.641-84.888 13.857-5.346 93.388-5.346 93.388l12.354-32.167c8.523-22.191 30.116-36.596 53.882-35.946 7.975.218 15.035 5.212 17.895 12.658 2.383 6.203 3.606 12.79 3.609 19.435l.021 47.298s26.441-14.531 30.565-59.741c3.224-35.355-28.092-58.782-28.092-58.782z" fill="#5a2c42" data-original="#5a2c42"></path></g><g><path d="m253.313 143.178-.021-47.298c-.003-6.645-1.226-13.232-3.609-19.435-2.861-7.446-9.921-12.44-17.895-12.658-18.692-.512-36.035 8.293-46.737 22.872 9.825-7.218 21.966-11.221 34.737-10.872 7.974.218 15.035 5.212 17.895 12.658 2.383 6.203 3.606 12.79 3.609 19.435l.021 47.298s6.806-3.752 14.05-13.341c-1.279.912-2.05 1.341-2.05 1.341z" fill="#ffc3ae" data-original="#ffc3ae"></path></g><g><g><path d="m188.673 38.511c12.417-15.194 26.251-21.624 39.088-23.508-16.792-2.306-38.393.909-56.862 23.508-36.366 44.498-5.346 93.388-5.346 93.388l8.555-22.275c-4.969-18.364-6.395-45.467 14.565-71.113z" fill="#6a3b52" data-original="#6a3b52"></path></g></g></g><g><g><path d="m223.602 131.129h-10.675v-4.173c0-2.948 2.39-5.338 5.338-5.338 2.948 0 5.338 2.39 5.338 5.338v4.173z" fill="#eea0a0" data-original="#eea0a0"></path></g><g><g><path d="m249.233 97.785h-11.536c-1.243 0-2.25-1.007-2.25-2.25s1.007-2.25 2.25-2.25h11.536c1.243 0 2.25 1.007 2.25 2.25s-1.007 2.25-2.25 2.25z" fill="#5a2c42" data-original="#5a2c42"></path></g><g><path d="m243.465 115.524c-2.207 0-4.414-.755-6.214-2.266-.952-.798-1.076-2.218-.277-3.17.798-.952 2.218-1.076 3.17-.277 1.924 1.615 4.72 1.614 6.643 0 .953-.799 2.371-.675 3.17.277s.674 2.372-.277 3.17c-1.801 1.511-4.008 2.266-6.215 2.266z" fill="#5a2c42" data-original="#5a2c42"></path></g></g><g><g><path d="m199.233 97.785h-11.536c-1.243 0-2.25-1.007-2.25-2.25s1.007-2.25 2.25-2.25h11.536c1.243 0 2.25 1.007 2.25 2.25s-1.007 2.25-2.25 2.25z" fill="#5a2c42" data-original="#5a2c42"></path></g><g><path d="m193.465 115.524c-2.207 0-4.414-.755-6.214-2.266-.952-.798-1.076-2.218-.277-3.17s2.217-1.076 3.17-.277c1.925 1.615 4.72 1.614 6.643 0 .952-.799 2.371-.675 3.17.277s.674 2.372-.277 3.17c-1.801 1.511-4.008 2.266-6.215 2.266z" fill="#5a2c42" data-original="#5a2c42"></path></g></g><g><g><path d="m218.865 150.129c-2.421 0-4.842-.716-6.907-2.149-.908-.629-1.133-1.875-.504-2.783s1.875-1.133 2.783-.504c2.769 1.92 6.487 1.92 9.256 0 .909-.629 2.154-.403 2.783.504.629.908.404 2.154-.504 2.783-2.065 1.433-4.486 2.149-6.907 2.149z" fill="#bf5377" data-original="#bf5377"></path></g></g></g></g></g></g><g><circle cx="411.976" cy="60" fill="#f2d249" r="40" data-original="#f2d249"></circle></g></g></g></svg>


